<mxfile host="Electron" modified="2024-07-30T21:22:50.950Z" agent="Mozilla/5.0 (Windows NT 10.0; Win64; x64) AppleWebKit/537.36 (KHTML, like Gecko) draw.io/24.5.3 Chrome/124.0.6367.207 Electron/30.0.6 Safari/537.36" etag="LDdwnvNwjYZ0JwnHOGiS" version="24.5.3" type="device" pages="2">
  <diagram name="One Flight" id="sJ9nrAKQJprEU2Cgnwpy">
    <mxGraphModel dx="1031" dy="579" grid="1" gridSize="20" guides="1" tooltips="1" connect="1" arrows="1" fold="1" page="1" pageScale="1" pageWidth="500" pageHeight="430" math="0" shadow="0">
      <root>
        <mxCell id="0" />
        <mxCell id="1" parent="0" />
        <mxCell id="uHwFRMFYB0P8lOGFV87j-10" value="" style="rounded=0;whiteSpace=wrap;html=1;" vertex="1" parent="1">
          <mxGeometry x="20" y="60" width="460" height="322" as="geometry" />
        </mxCell>
        <mxCell id="uHwFRMFYB0P8lOGFV87j-1" value="" style="ellipse;whiteSpace=wrap;html=1;aspect=fixed;fillStyle=solid;fillColor=#000000;gradientColor=none;opacity=20;strokeWidth=1;strokeColor=none;" vertex="1" parent="1">
          <mxGeometry x="229" y="139.5" width="180" height="180" as="geometry" />
        </mxCell>
        <mxCell id="uHwFRMFYB0P8lOGFV87j-2" value="" style="ellipse;whiteSpace=wrap;html=1;aspect=fixed;fillStyle=solid;fillColor=#000000;gradientColor=none;opacity=20;strokeWidth=1;strokeColor=none;" vertex="1" parent="1">
          <mxGeometry x="37" y="109" width="240" height="240" as="geometry" />
        </mxCell>
        <mxCell id="uHwFRMFYB0P8lOGFV87j-8" value="&lt;font style=&quot;font-size: 28px;&quot; face=&quot;Times New Roman&quot;&gt;&lt;i style=&quot;font-size: 28px;&quot;&gt;U&lt;/i&gt;: Set of All Trips&lt;/font&gt;" style="text;html=1;align=center;verticalAlign=middle;whiteSpace=wrap;rounded=0;fontSize=28;" vertex="1" parent="1">
          <mxGeometry x="16" y="32" width="217" height="20" as="geometry" />
        </mxCell>
        <mxCell id="uHwFRMFYB0P8lOGFV87j-13" value="&lt;p style=&quot;font-size: 20px;&quot; class=&quot;MsoNormal&quot;&gt;&lt;/p&gt;&lt;p style=&quot;font-size: 20px;&quot;&gt;&lt;span style=&quot;background-color: initial; font-size: 20px;&quot;&gt;&lt;font style=&quot;font-size: 20px;&quot; face=&quot;Times New Roman&quot;&gt;&lt;i style=&quot;font-size: 20px;&quot;&gt;X&#39;&lt;/i&gt;&lt;font style=&quot;font-size: 20px;&quot;&gt;∩&lt;/font&gt;&lt;/font&gt;&lt;/span&gt;&lt;font style=&quot;font-size: 20px;&quot; face=&quot;Times New Roman&quot;&gt;&lt;i style=&quot;font-size: 20px;&quot;&gt;Y&lt;/i&gt;&lt;/font&gt;&lt;/p&gt;" style="text;html=1;align=center;verticalAlign=middle;whiteSpace=wrap;rounded=0;fontSize=20;" vertex="1" parent="1">
          <mxGeometry x="115.5" y="217" width="83" height="25" as="geometry" />
        </mxCell>
        <mxCell id="uHwFRMFYB0P8lOGFV87j-18" value="&lt;p style=&quot;font-size: 22px;&quot; class=&quot;MsoNormal&quot;&gt;&lt;/p&gt;&lt;p style=&quot;font-size: 22px;&quot;&gt;&lt;span style=&quot;background-color: initial; font-size: 22px;&quot;&gt;&lt;font style=&quot;font-size: 22px;&quot; face=&quot;Times New Roman&quot;&gt;&lt;i style=&quot;font-size: 22px;&quot;&gt;X&lt;/i&gt;&lt;span style=&quot;font-size: 22px;&quot;&gt;: Trips Counted in Survey&lt;/span&gt;&lt;/font&gt;&lt;/span&gt;&lt;/p&gt;" style="text;html=1;align=center;verticalAlign=middle;whiteSpace=wrap;rounded=0;fontSize=22;" vertex="1" parent="1">
          <mxGeometry x="233" y="114" width="249" height="25" as="geometry" />
        </mxCell>
        <mxCell id="uHwFRMFYB0P8lOGFV87j-19" value="&lt;p style=&quot;font-size: 22px;&quot; class=&quot;MsoNormal&quot;&gt;&lt;/p&gt;&lt;p style=&quot;font-size: 22px;&quot;&gt;&lt;span style=&quot;background-color: initial; font-size: 22px;&quot;&gt;&lt;font style=&quot;font-size: 22px;&quot; face=&quot;Times New Roman&quot;&gt;&lt;i style=&quot;font-size: 22px;&quot;&gt;Y&lt;/i&gt;&lt;span style=&quot;font-size: 22px;&quot;&gt;: Interviewed Trips&lt;/span&gt;&lt;/font&gt;&lt;/span&gt;&lt;/p&gt;" style="text;html=1;align=center;verticalAlign=middle;whiteSpace=wrap;rounded=0;fontSize=22;" vertex="1" parent="1">
          <mxGeometry x="49" y="84" width="189" height="25" as="geometry" />
        </mxCell>
        <mxCell id="uHwFRMFYB0P8lOGFV87j-20" value="&lt;p style=&quot;font-size: 20px;&quot; class=&quot;MsoNormal&quot;&gt;&lt;/p&gt;&lt;p style=&quot;font-size: 20px;&quot;&gt;&lt;span style=&quot;background-color: initial; font-size: 20px;&quot;&gt;&lt;font style=&quot;font-size: 20px;&quot; face=&quot;Times New Roman&quot;&gt;&lt;i style=&quot;font-size: 20px;&quot;&gt;X&lt;/i&gt;&lt;font style=&quot;font-size: 20px;&quot;&gt;∩&lt;/font&gt;&lt;/font&gt;&lt;/span&gt;&lt;font style=&quot;font-size: 20px;&quot; face=&quot;Times New Roman&quot;&gt;&lt;i style=&quot;font-size: 20px;&quot;&gt;Y&lt;/i&gt;&lt;/font&gt;&lt;/p&gt;" style="text;html=1;align=center;verticalAlign=middle;whiteSpace=wrap;rounded=0;fontSize=20;" vertex="1" parent="1">
          <mxGeometry x="213" y="217" width="83" height="25" as="geometry" />
        </mxCell>
        <mxCell id="uHwFRMFYB0P8lOGFV87j-21" value="&lt;p style=&quot;font-size: 20px;&quot; class=&quot;MsoNormal&quot;&gt;&lt;/p&gt;&lt;p style=&quot;font-size: 20px;&quot;&gt;&lt;span style=&quot;background-color: initial; font-size: 20px;&quot;&gt;&lt;font style=&quot;font-size: 20px;&quot; face=&quot;Times New Roman&quot;&gt;&lt;i style=&quot;font-size: 20px;&quot;&gt;X&lt;/i&gt;&lt;font style=&quot;font-size: 20px;&quot;&gt;∩&lt;/font&gt;&lt;/font&gt;&lt;/span&gt;&lt;font style=&quot;font-size: 20px;&quot; face=&quot;Times New Roman&quot;&gt;&lt;i style=&quot;font-size: 20px;&quot;&gt;Y&#39;&lt;/i&gt;&lt;/font&gt;&lt;/p&gt;" style="text;html=1;align=center;verticalAlign=middle;whiteSpace=wrap;rounded=0;fontSize=20;" vertex="1" parent="1">
          <mxGeometry x="277.5" y="217" width="83" height="25" as="geometry" />
        </mxCell>
        <mxCell id="uHwFRMFYB0P8lOGFV87j-22" value="&lt;p style=&quot;font-size: 20px;&quot; class=&quot;MsoNormal&quot;&gt;&lt;/p&gt;&lt;p style=&quot;font-size: 20px;&quot;&gt;&lt;span style=&quot;background-color: initial; font-size: 20px;&quot;&gt;&lt;font style=&quot;font-size: 20px;&quot; face=&quot;Times New Roman&quot;&gt;&lt;i style=&quot;font-size: 20px;&quot;&gt;X&#39;&lt;/i&gt;&lt;font style=&quot;font-size: 20px;&quot;&gt;∩&lt;/font&gt;&lt;/font&gt;&lt;/span&gt;&lt;font style=&quot;font-size: 20px;&quot; face=&quot;Times New Roman&quot;&gt;&lt;i style=&quot;font-size: 20px;&quot;&gt;Y&#39;&lt;/i&gt;&lt;/font&gt;&lt;/p&gt;" style="text;html=1;align=center;verticalAlign=middle;whiteSpace=wrap;rounded=0;fontSize=20;" vertex="1" parent="1">
          <mxGeometry x="380" y="320" width="65" height="25" as="geometry" />
        </mxCell>
      </root>
    </mxGraphModel>
  </diagram>
  <diagram name="Two Flights" id="brIaAckJ9TJhJqIxV8Mj">
    <mxGraphModel dx="1269" dy="712" grid="1" gridSize="20" guides="1" tooltips="1" connect="1" arrows="1" fold="1" page="1" pageScale="1" pageWidth="500" pageHeight="430" math="0" shadow="0">
      <root>
        <mxCell id="wahW6SzGFoKIELe4Vvix-0" />
        <mxCell id="wahW6SzGFoKIELe4Vvix-1" parent="wahW6SzGFoKIELe4Vvix-0" />
        <mxCell id="wahW6SzGFoKIELe4Vvix-2" value="" style="rounded=0;whiteSpace=wrap;html=1;" vertex="1" parent="wahW6SzGFoKIELe4Vvix-1">
          <mxGeometry x="20" y="60" width="460" height="322" as="geometry" />
        </mxCell>
        <mxCell id="wahW6SzGFoKIELe4Vvix-3" value="" style="ellipse;whiteSpace=wrap;html=1;aspect=fixed;fillStyle=solid;fillColor=#000000;gradientColor=none;opacity=20;strokeWidth=1;strokeColor=none;" vertex="1" parent="wahW6SzGFoKIELe4Vvix-1">
          <mxGeometry x="156" y="238" width="120" height="120" as="geometry" />
        </mxCell>
        <mxCell id="wahW6SzGFoKIELe4Vvix-4" value="" style="ellipse;whiteSpace=wrap;html=1;aspect=fixed;fillStyle=solid;fillColor=#000000;gradientColor=none;opacity=20;strokeWidth=1;strokeColor=none;" vertex="1" parent="wahW6SzGFoKIELe4Vvix-1">
          <mxGeometry x="49.5" y="111" width="200" height="200" as="geometry" />
        </mxCell>
        <mxCell id="wahW6SzGFoKIELe4Vvix-5" value="&lt;font style=&quot;font-size: 28px;&quot; face=&quot;Times New Roman&quot;&gt;&lt;i style=&quot;font-size: 28px;&quot;&gt;U&lt;/i&gt;: Set of All Trips&lt;/font&gt;" style="text;html=1;align=center;verticalAlign=middle;whiteSpace=wrap;rounded=0;fontSize=28;" vertex="1" parent="wahW6SzGFoKIELe4Vvix-1">
          <mxGeometry x="16" y="32" width="217" height="20" as="geometry" />
        </mxCell>
        <mxCell id="wahW6SzGFoKIELe4Vvix-7" value="&lt;p style=&quot;font-size: 22px;&quot; class=&quot;MsoNormal&quot;&gt;&lt;/p&gt;&lt;p style=&quot;&quot;&gt;&lt;span style=&quot;background-color: initial;&quot;&gt;&lt;font style=&quot;&quot; face=&quot;Times New Roman&quot;&gt;&lt;i style=&quot;font-size: 22px;&quot;&gt;X&lt;/i&gt;&lt;sub style=&quot;&quot;&gt;&lt;font style=&quot;font-size: 15px;&quot;&gt;1&lt;/font&gt;&lt;/sub&gt;&lt;span style=&quot;font-size: 22px;&quot;&gt;: Trips Counted in Survey 1&lt;/span&gt;&lt;/font&gt;&lt;/span&gt;&lt;/p&gt;" style="text;html=1;align=center;verticalAlign=middle;whiteSpace=wrap;rounded=0;fontSize=22;" vertex="1" parent="wahW6SzGFoKIELe4Vvix-1">
          <mxGeometry x="20" y="357" width="287" height="25" as="geometry" />
        </mxCell>
        <mxCell id="wahW6SzGFoKIELe4Vvix-8" value="&lt;p style=&quot;font-size: 22px;&quot; class=&quot;MsoNormal&quot;&gt;&lt;/p&gt;&lt;p style=&quot;font-size: 22px;&quot;&gt;&lt;span style=&quot;background-color: initial; font-size: 22px;&quot;&gt;&lt;font style=&quot;font-size: 22px;&quot; face=&quot;Times New Roman&quot;&gt;&lt;i style=&quot;font-size: 22px;&quot;&gt;Y&lt;/i&gt;&lt;span style=&quot;font-size: 22px;&quot;&gt;: Interviewed Trips&lt;/span&gt;&lt;/font&gt;&lt;/span&gt;&lt;/p&gt;" style="text;html=1;align=center;verticalAlign=middle;whiteSpace=wrap;rounded=0;fontSize=22;" vertex="1" parent="wahW6SzGFoKIELe4Vvix-1">
          <mxGeometry x="20" y="85" width="189" height="25" as="geometry" />
        </mxCell>
        <mxCell id="wahW6SzGFoKIELe4Vvix-10" value="&lt;p style=&quot;font-size: 20px;&quot; class=&quot;MsoNormal&quot;&gt;&lt;/p&gt;&lt;p style=&quot;font-size: 20px;&quot;&gt;&lt;font face=&quot;Times New Roman&quot;&gt;&lt;i&gt;A&lt;/i&gt;&lt;/font&gt;&lt;/p&gt;" style="text;html=1;align=center;verticalAlign=middle;whiteSpace=wrap;rounded=0;fontSize=20;" vertex="1" parent="wahW6SzGFoKIELe4Vvix-1">
          <mxGeometry x="129.5" y="198.5" width="40" height="25" as="geometry" />
        </mxCell>
        <mxCell id="uWWDZzkA9yVWZMJzWeT--1" value="&lt;p style=&quot;font-size: 22px;&quot; class=&quot;MsoNormal&quot;&gt;&lt;/p&gt;&lt;p style=&quot;&quot;&gt;&lt;span style=&quot;background-color: initial;&quot;&gt;&lt;font style=&quot;&quot; face=&quot;Times New Roman&quot;&gt;&lt;i style=&quot;font-size: 22px;&quot;&gt;X&lt;/i&gt;&lt;sub style=&quot;&quot;&gt;&lt;font style=&quot;font-size: 15px;&quot;&gt;2&lt;/font&gt;&lt;/sub&gt;&lt;span style=&quot;font-size: 22px;&quot;&gt;: Trips Counted in Survey 2&lt;/span&gt;&lt;/font&gt;&lt;/span&gt;&lt;/p&gt;" style="text;html=1;align=center;verticalAlign=middle;whiteSpace=wrap;rounded=0;fontSize=22;" vertex="1" parent="wahW6SzGFoKIELe4Vvix-1">
          <mxGeometry x="198.5" y="64" width="287" height="25" as="geometry" />
        </mxCell>
        <mxCell id="uWWDZzkA9yVWZMJzWeT--2" value="" style="ellipse;whiteSpace=wrap;html=1;aspect=fixed;fillStyle=solid;fillColor=#000000;gradientColor=none;opacity=20;strokeWidth=1;strokeColor=none;" vertex="1" parent="wahW6SzGFoKIELe4Vvix-1">
          <mxGeometry x="198" y="85" width="260" height="260" as="geometry" />
        </mxCell>
        <mxCell id="uWWDZzkA9yVWZMJzWeT--3" value="&lt;p style=&quot;font-size: 20px;&quot; class=&quot;MsoNormal&quot;&gt;&lt;/p&gt;&lt;p style=&quot;font-size: 20px;&quot;&gt;&lt;font face=&quot;Times New Roman&quot;&gt;&lt;i&gt;C&lt;/i&gt;&lt;/font&gt;&lt;/p&gt;" style="text;html=1;align=center;verticalAlign=middle;whiteSpace=wrap;rounded=0;fontSize=20;" vertex="1" parent="wahW6SzGFoKIELe4Vvix-1">
          <mxGeometry x="308" y="198.5" width="40" height="25" as="geometry" />
        </mxCell>
        <mxCell id="uWWDZzkA9yVWZMJzWeT--4" value="&lt;p style=&quot;font-size: 20px;&quot; class=&quot;MsoNormal&quot;&gt;&lt;/p&gt;&lt;p style=&quot;font-size: 20px;&quot;&gt;&lt;font face=&quot;Times New Roman&quot;&gt;&lt;i&gt;B&lt;/i&gt;&lt;/font&gt;&lt;/p&gt;" style="text;html=1;align=center;verticalAlign=middle;whiteSpace=wrap;rounded=0;fontSize=20;" vertex="1" parent="wahW6SzGFoKIELe4Vvix-1">
          <mxGeometry x="195" y="299" width="40" height="25" as="geometry" />
        </mxCell>
        <mxCell id="Zw_kfy3__DerFyJ7h3Ew-4" value="&lt;p style=&quot;font-size: 20px;&quot; class=&quot;MsoNormal&quot;&gt;&lt;/p&gt;&lt;p style=&quot;font-size: 20px;&quot;&gt;&lt;font face=&quot;Times New Roman&quot;&gt;&lt;i&gt;D&lt;/i&gt;&lt;/font&gt;&lt;/p&gt;" style="text;html=1;align=center;verticalAlign=middle;whiteSpace=wrap;rounded=0;fontSize=20;" vertex="1" parent="wahW6SzGFoKIELe4Vvix-1">
          <mxGeometry x="169.5" y="261" width="40" height="25" as="geometry" />
        </mxCell>
        <mxCell id="Zw_kfy3__DerFyJ7h3Ew-5" value="&lt;p style=&quot;font-size: 20px;&quot; class=&quot;MsoNormal&quot;&gt;&lt;/p&gt;&lt;p style=&quot;font-size: 20px;&quot;&gt;&lt;font face=&quot;Times New Roman&quot;&gt;&lt;i&gt;E&lt;/i&gt;&lt;/font&gt;&lt;/p&gt;" style="text;html=1;align=center;verticalAlign=middle;whiteSpace=wrap;rounded=0;fontSize=20;" vertex="1" parent="wahW6SzGFoKIELe4Vvix-1">
          <mxGeometry x="203" y="199" width="40" height="25" as="geometry" />
        </mxCell>
        <mxCell id="Zw_kfy3__DerFyJ7h3Ew-6" value="&lt;p style=&quot;font-size: 20px;&quot; class=&quot;MsoNormal&quot;&gt;&lt;/p&gt;&lt;p style=&quot;font-size: 20px;&quot;&gt;&lt;font face=&quot;Times New Roman&quot;&gt;&lt;i&gt;F&lt;/i&gt;&lt;/font&gt;&lt;/p&gt;" style="text;html=1;align=center;verticalAlign=middle;whiteSpace=wrap;rounded=0;fontSize=20;" vertex="1" parent="wahW6SzGFoKIELe4Vvix-1">
          <mxGeometry x="229" y="273" width="40" height="25" as="geometry" />
        </mxCell>
        <mxCell id="Zw_kfy3__DerFyJ7h3Ew-7" value="&lt;p style=&quot;font-size: 20px;&quot; class=&quot;MsoNormal&quot;&gt;&lt;/p&gt;&lt;p style=&quot;font-size: 20px;&quot;&gt;&lt;font face=&quot;Times New Roman&quot;&gt;&lt;i&gt;G&lt;/i&gt;&lt;/font&gt;&lt;/p&gt;" style="text;html=1;align=center;verticalAlign=middle;whiteSpace=wrap;rounded=0;fontSize=20;" vertex="1" parent="wahW6SzGFoKIELe4Vvix-1">
          <mxGeometry x="202" y="242" width="40" height="25" as="geometry" />
        </mxCell>
        <mxCell id="Zw_kfy3__DerFyJ7h3Ew-8" value="&lt;p style=&quot;font-size: 20px;&quot; class=&quot;MsoNormal&quot;&gt;&lt;/p&gt;&lt;p style=&quot;font-size: 20px;&quot;&gt;&lt;font face=&quot;Times New Roman&quot;&gt;&lt;i&gt;H&lt;/i&gt;&lt;/font&gt;&lt;/p&gt;" style="text;html=1;align=center;verticalAlign=middle;whiteSpace=wrap;rounded=0;fontSize=20;" vertex="1" parent="wahW6SzGFoKIELe4Vvix-1">
          <mxGeometry x="420" y="344" width="40" height="25" as="geometry" />
        </mxCell>
        <mxCell id="Zw_kfy3__DerFyJ7h3Ew-16" value="" style="group" vertex="1" connectable="0" parent="wahW6SzGFoKIELe4Vvix-1">
          <mxGeometry x="500" y="89" width="180" height="276" as="geometry" />
        </mxCell>
        <mxCell id="uWWDZzkA9yVWZMJzWeT--5" value="&lt;p class=&quot;MsoNormal&quot; style=&quot;font-size: 20px;&quot;&gt;&lt;/p&gt;&lt;p style=&quot;&quot;&gt;&lt;font style=&quot;&quot; face=&quot;Times New Roman&quot;&gt;&lt;i style=&quot;font-size: 20px;&quot;&gt;A&lt;/i&gt;: &lt;i&gt;X&#39;&lt;/i&gt;&lt;sub style=&quot;&quot;&gt;&lt;font style=&quot;font-size: 13px;&quot;&gt;1&lt;/font&gt;&lt;/sub&gt;&lt;/font&gt;&lt;span style=&quot;font-size: 20px; font-family: &amp;quot;Times New Roman&amp;quot;; text-align: center; background-color: initial;&quot;&gt;∩&lt;/span&gt;&lt;font style=&quot;background-color: initial;&quot; face=&quot;Times New Roman&quot;&gt;&lt;i&gt;X&#39;&lt;/i&gt;&lt;sub&gt;&lt;font style=&quot;font-size: 13px;&quot;&gt;2&lt;/font&gt;&lt;/sub&gt;&lt;/font&gt;&lt;span style=&quot;background-color: initial; font-family: &amp;quot;Times New Roman&amp;quot;; text-align: center;&quot;&gt;∩&lt;/span&gt;&lt;span style=&quot;background-color: initial; font-family: &amp;quot;Times New Roman&amp;quot;;&quot;&gt;&lt;i&gt;Y&lt;/i&gt;&lt;/span&gt;&lt;/p&gt;" style="text;html=1;align=left;verticalAlign=middle;whiteSpace=wrap;rounded=0;fontSize=20;" vertex="1" parent="Zw_kfy3__DerFyJ7h3Ew-16">
          <mxGeometry width="180" height="31" as="geometry" />
        </mxCell>
        <mxCell id="Zw_kfy3__DerFyJ7h3Ew-9" value="&lt;p class=&quot;MsoNormal&quot; style=&quot;font-size: 20px;&quot;&gt;&lt;/p&gt;&lt;p style=&quot;&quot;&gt;&lt;font style=&quot;&quot; face=&quot;Times New Roman&quot;&gt;&lt;i&gt;B&lt;/i&gt;: &lt;i&gt;X&lt;/i&gt;&lt;sub style=&quot;&quot;&gt;&lt;font style=&quot;font-size: 13px;&quot;&gt;1&lt;/font&gt;&lt;/sub&gt;&lt;/font&gt;&lt;span style=&quot;font-size: 20px; font-family: &amp;quot;Times New Roman&amp;quot;; text-align: center; background-color: initial;&quot;&gt;∩&lt;/span&gt;&lt;font style=&quot;background-color: initial;&quot; face=&quot;Times New Roman&quot;&gt;&lt;i&gt;X&#39;&lt;/i&gt;&lt;sub&gt;&lt;font style=&quot;font-size: 13px;&quot;&gt;2&lt;/font&gt;&lt;/sub&gt;&lt;/font&gt;&lt;span style=&quot;background-color: initial; font-family: &amp;quot;Times New Roman&amp;quot;; text-align: center;&quot;&gt;∩&lt;/span&gt;&lt;span style=&quot;background-color: initial; font-family: &amp;quot;Times New Roman&amp;quot;;&quot;&gt;&lt;i&gt;Y&#39;&lt;/i&gt;&lt;/span&gt;&lt;/p&gt;" style="text;html=1;align=left;verticalAlign=middle;whiteSpace=wrap;rounded=0;fontSize=20;" vertex="1" parent="Zw_kfy3__DerFyJ7h3Ew-16">
          <mxGeometry y="31" width="180" height="31" as="geometry" />
        </mxCell>
        <mxCell id="Zw_kfy3__DerFyJ7h3Ew-10" value="&lt;p class=&quot;MsoNormal&quot; style=&quot;font-size: 20px;&quot;&gt;&lt;/p&gt;&lt;p style=&quot;&quot;&gt;&lt;font style=&quot;&quot; face=&quot;Times New Roman&quot;&gt;&lt;i&gt;C&lt;/i&gt;: &lt;i&gt;X&#39;&lt;/i&gt;&lt;sub style=&quot;&quot;&gt;&lt;font style=&quot;font-size: 13px;&quot;&gt;1&lt;/font&gt;&lt;/sub&gt;&lt;/font&gt;&lt;span style=&quot;font-size: 20px; font-family: &amp;quot;Times New Roman&amp;quot;; text-align: center; background-color: initial;&quot;&gt;∩&lt;/span&gt;&lt;font style=&quot;background-color: initial;&quot; face=&quot;Times New Roman&quot;&gt;&lt;i&gt;X&lt;/i&gt;&lt;sub&gt;&lt;font style=&quot;font-size: 13px;&quot;&gt;2&lt;/font&gt;&lt;/sub&gt;&lt;/font&gt;&lt;span style=&quot;background-color: initial; font-family: &amp;quot;Times New Roman&amp;quot;; text-align: center;&quot;&gt;∩&lt;/span&gt;&lt;span style=&quot;background-color: initial; font-family: &amp;quot;Times New Roman&amp;quot;;&quot;&gt;&lt;i&gt;Y&#39;&lt;/i&gt;&lt;/span&gt;&lt;/p&gt;" style="text;html=1;align=left;verticalAlign=middle;whiteSpace=wrap;rounded=0;fontSize=20;" vertex="1" parent="Zw_kfy3__DerFyJ7h3Ew-16">
          <mxGeometry y="62" width="180" height="31" as="geometry" />
        </mxCell>
        <mxCell id="Zw_kfy3__DerFyJ7h3Ew-11" value="&lt;p class=&quot;MsoNormal&quot; style=&quot;font-size: 20px;&quot;&gt;&lt;/p&gt;&lt;p style=&quot;&quot;&gt;&lt;font style=&quot;&quot; face=&quot;Times New Roman&quot;&gt;&lt;i&gt;D&lt;/i&gt;: &lt;i&gt;X&lt;/i&gt;&lt;sub style=&quot;&quot;&gt;&lt;font style=&quot;font-size: 13px;&quot;&gt;1&lt;/font&gt;&lt;/sub&gt;&lt;/font&gt;&lt;span style=&quot;font-size: 20px; font-family: &amp;quot;Times New Roman&amp;quot;; text-align: center; background-color: initial;&quot;&gt;∩&lt;/span&gt;&lt;font style=&quot;background-color: initial;&quot; face=&quot;Times New Roman&quot;&gt;&lt;i&gt;X&#39;&lt;/i&gt;&lt;sub&gt;&lt;font style=&quot;font-size: 13px;&quot;&gt;2&lt;/font&gt;&lt;/sub&gt;&lt;/font&gt;&lt;span style=&quot;background-color: initial; font-family: &amp;quot;Times New Roman&amp;quot;; text-align: center;&quot;&gt;∩&lt;/span&gt;&lt;span style=&quot;background-color: initial; font-family: &amp;quot;Times New Roman&amp;quot;;&quot;&gt;&lt;i&gt;Y&lt;/i&gt;&lt;/span&gt;&lt;/p&gt;" style="text;html=1;align=left;verticalAlign=middle;whiteSpace=wrap;rounded=0;fontSize=20;" vertex="1" parent="Zw_kfy3__DerFyJ7h3Ew-16">
          <mxGeometry y="93" width="180" height="31" as="geometry" />
        </mxCell>
        <mxCell id="Zw_kfy3__DerFyJ7h3Ew-12" value="&lt;p class=&quot;MsoNormal&quot; style=&quot;font-size: 20px;&quot;&gt;&lt;/p&gt;&lt;p style=&quot;&quot;&gt;&lt;font style=&quot;&quot; face=&quot;Times New Roman&quot;&gt;&lt;i&gt;E&lt;/i&gt;: &lt;i&gt;X&#39;&lt;/i&gt;&lt;sub style=&quot;&quot;&gt;&lt;font style=&quot;font-size: 13px;&quot;&gt;1&lt;/font&gt;&lt;/sub&gt;&lt;/font&gt;&lt;span style=&quot;font-size: 20px; font-family: &amp;quot;Times New Roman&amp;quot;; text-align: center; background-color: initial;&quot;&gt;∩&lt;/span&gt;&lt;font style=&quot;background-color: initial;&quot; face=&quot;Times New Roman&quot;&gt;&lt;i&gt;X&lt;/i&gt;&lt;sub&gt;&lt;font style=&quot;font-size: 13px;&quot;&gt;2&lt;/font&gt;&lt;/sub&gt;&lt;/font&gt;&lt;span style=&quot;background-color: initial; font-family: &amp;quot;Times New Roman&amp;quot;; text-align: center;&quot;&gt;∩&lt;/span&gt;&lt;span style=&quot;background-color: initial; font-family: &amp;quot;Times New Roman&amp;quot;;&quot;&gt;&lt;i&gt;Y&lt;/i&gt;&lt;/span&gt;&lt;/p&gt;" style="text;html=1;align=left;verticalAlign=middle;whiteSpace=wrap;rounded=0;fontSize=20;" vertex="1" parent="Zw_kfy3__DerFyJ7h3Ew-16">
          <mxGeometry y="124" width="180" height="31" as="geometry" />
        </mxCell>
        <mxCell id="Zw_kfy3__DerFyJ7h3Ew-13" value="&lt;p class=&quot;MsoNormal&quot; style=&quot;font-size: 20px;&quot;&gt;&lt;/p&gt;&lt;p style=&quot;&quot;&gt;&lt;font style=&quot;&quot; face=&quot;Times New Roman&quot;&gt;&lt;i&gt;F&lt;/i&gt;: &lt;i&gt;X&lt;/i&gt;&lt;sub style=&quot;&quot;&gt;&lt;font style=&quot;font-size: 13px;&quot;&gt;1&lt;/font&gt;&lt;/sub&gt;&lt;/font&gt;&lt;span style=&quot;font-size: 20px; font-family: &amp;quot;Times New Roman&amp;quot;; text-align: center; background-color: initial;&quot;&gt;∩&lt;/span&gt;&lt;font style=&quot;background-color: initial;&quot; face=&quot;Times New Roman&quot;&gt;&lt;i&gt;X&lt;/i&gt;&lt;sub&gt;&lt;font style=&quot;font-size: 13px;&quot;&gt;2&lt;/font&gt;&lt;/sub&gt;&lt;/font&gt;&lt;span style=&quot;background-color: initial; font-family: &amp;quot;Times New Roman&amp;quot;; text-align: center;&quot;&gt;∩&lt;/span&gt;&lt;span style=&quot;background-color: initial; font-family: &amp;quot;Times New Roman&amp;quot;;&quot;&gt;&lt;i&gt;Y&#39;&lt;/i&gt;&lt;/span&gt;&lt;/p&gt;" style="text;html=1;align=left;verticalAlign=middle;whiteSpace=wrap;rounded=0;fontSize=20;" vertex="1" parent="Zw_kfy3__DerFyJ7h3Ew-16">
          <mxGeometry y="155" width="180" height="31" as="geometry" />
        </mxCell>
        <mxCell id="Zw_kfy3__DerFyJ7h3Ew-14" value="&lt;p class=&quot;MsoNormal&quot; style=&quot;font-size: 20px;&quot;&gt;&lt;/p&gt;&lt;p style=&quot;&quot;&gt;&lt;font style=&quot;&quot; face=&quot;Times New Roman&quot;&gt;&lt;i&gt;G&lt;/i&gt;: &lt;i&gt;X&lt;/i&gt;&lt;sub style=&quot;&quot;&gt;&lt;font style=&quot;font-size: 13px;&quot;&gt;1&lt;/font&gt;&lt;/sub&gt;&lt;/font&gt;&lt;span style=&quot;font-size: 20px; font-family: &amp;quot;Times New Roman&amp;quot;; text-align: center; background-color: initial;&quot;&gt;∩&lt;/span&gt;&lt;font style=&quot;background-color: initial;&quot; face=&quot;Times New Roman&quot;&gt;&lt;i&gt;X&lt;/i&gt;&lt;sub&gt;&lt;font style=&quot;font-size: 13px;&quot;&gt;2&lt;/font&gt;&lt;/sub&gt;&lt;/font&gt;&lt;span style=&quot;background-color: initial; font-family: &amp;quot;Times New Roman&amp;quot;; text-align: center;&quot;&gt;∩&lt;/span&gt;&lt;span style=&quot;background-color: initial; font-family: &amp;quot;Times New Roman&amp;quot;;&quot;&gt;&lt;i&gt;Y&lt;/i&gt;&lt;/span&gt;&lt;/p&gt;" style="text;html=1;align=left;verticalAlign=middle;whiteSpace=wrap;rounded=0;fontSize=20;" vertex="1" parent="Zw_kfy3__DerFyJ7h3Ew-16">
          <mxGeometry y="186" width="180" height="31" as="geometry" />
        </mxCell>
        <mxCell id="Zw_kfy3__DerFyJ7h3Ew-15" value="&lt;p class=&quot;MsoNormal&quot; style=&quot;font-size: 20px;&quot;&gt;&lt;/p&gt;&lt;p style=&quot;&quot;&gt;&lt;font style=&quot;&quot; face=&quot;Times New Roman&quot;&gt;&lt;i&gt;H&lt;/i&gt;: &lt;i&gt;X&#39;&lt;/i&gt;&lt;sub style=&quot;&quot;&gt;&lt;font style=&quot;font-size: 13px;&quot;&gt;1&lt;/font&gt;&lt;/sub&gt;&lt;/font&gt;&lt;span style=&quot;font-size: 20px; font-family: &amp;quot;Times New Roman&amp;quot;; text-align: center; background-color: initial;&quot;&gt;∩&lt;/span&gt;&lt;font style=&quot;background-color: initial;&quot; face=&quot;Times New Roman&quot;&gt;&lt;i&gt;X&#39;&lt;/i&gt;&lt;sub&gt;&lt;font style=&quot;font-size: 13px;&quot;&gt;2&lt;/font&gt;&lt;/sub&gt;&lt;/font&gt;&lt;span style=&quot;background-color: initial; font-family: &amp;quot;Times New Roman&amp;quot;; text-align: center;&quot;&gt;∩&lt;/span&gt;&lt;span style=&quot;background-color: initial; font-family: &amp;quot;Times New Roman&amp;quot;;&quot;&gt;&lt;i&gt;Y&#39;&lt;/i&gt;&lt;/span&gt;&lt;/p&gt;" style="text;html=1;align=left;verticalAlign=middle;whiteSpace=wrap;rounded=0;fontSize=20;" vertex="1" parent="Zw_kfy3__DerFyJ7h3Ew-16">
          <mxGeometry y="217" width="180" height="31" as="geometry" />
        </mxCell>
        <mxCell id="Zw_kfy3__DerFyJ7h3Ew-17" value="&lt;p class=&quot;MsoNormal&quot; style=&quot;font-size: 20px;&quot;&gt;&lt;/p&gt;&lt;p style=&quot;&quot;&gt;&lt;font size=&quot;1&quot; style=&quot;&quot; face=&quot;Times New Roman&quot;&gt;&lt;u style=&quot;font-size: 22px;&quot;&gt;Intersections&lt;/u&gt;&lt;/font&gt;&lt;/p&gt;" style="text;html=1;align=left;verticalAlign=middle;whiteSpace=wrap;rounded=0;fontSize=20;" vertex="1" parent="wahW6SzGFoKIELe4Vvix-1">
          <mxGeometry x="500" y="59" width="180" height="31" as="geometry" />
        </mxCell>
      </root>
    </mxGraphModel>
  </diagram>
</mxfile>
